<?xml version="1.0" encoding="UTF-8" standalone="no"?>
<!DOCTYPE svg PUBLIC "-//W3C//DTD SVG 1.1//EN" "http://www.w3.org/Graphics/SVG/1.1/DTD/svg11.dtd">
<svg width="100%" height="100%" viewBox="0 0 118 69" version="1.1" xmlns="http://www.w3.org/2000/svg" xmlns:xlink="http://www.w3.org/1999/xlink" xml:space="preserve" xmlns:serif="http://www.serif.com/" style="fill-rule:evenodd;clip-rule:evenodd;stroke-linejoin:round;stroke-miterlimit:2;">
    <g transform="matrix(1,0,0,1.05279,-599.411,-311.577)">
        <g>
            <g>
                <path d="M658.12,295.955C658.293,295.954 658.466,295.954 658.64,295.954C684.941,295.954 703.574,304.59 709.05,316.624C709.65,317.942 716.829,330.357 716.829,335.951C716.829,349.777 690.756,361.002 658.64,361.002L657.6,361.002C625.485,361.002 599.411,349.777 599.411,335.951C599.411,330.357 606.591,317.942 607.191,316.624C612.666,304.59 631.299,295.954 657.6,295.954C657.774,295.954 657.948,295.954 658.12,295.955ZM658.12,329.256C642.134,329.256 629.155,323.939 629.155,317.391C629.155,310.842 642.134,305.525 658.12,305.525C662,305.525 665.703,305.839 669.082,306.419L670.636,306.735L673.756,307.43L675.389,307.918L677.883,308.761L680.468,309.845L683.006,311.345L683.422,311.625L683.891,311.995L684.603,312.6L685.016,313.006L685.572,313.628L685.901,314.052L686.317,314.714L686.547,315.133L686.825,315.881L686.945,316.247L687.086,317.391L686.945,318.534L686.825,318.901L686.547,319.648L686.317,320.068L685.901,320.73L685.572,321.153L685.016,321.775L684.603,322.182L683.891,322.787L683.422,323.156L683.006,323.437L680.468,324.936L677.883,326.021L675.389,326.864L673.756,327.352L670.636,328.046L669.082,328.362L663.955,329.015L658.12,329.256Z" style="fill:rgb(129,129,129);"/>
            </g>
        </g>
    </g>
</svg>
