<?xml version="1.0" encoding="UTF-8" standalone="no"?>
<!DOCTYPE svg PUBLIC "-//W3C//DTD SVG 1.1//EN" "http://www.w3.org/Graphics/SVG/1.1/DTD/svg11.dtd">
<svg width="100%" height="100%" viewBox="0 0 420 404" version="1.1" xmlns="http://www.w3.org/2000/svg" xmlns:xlink="http://www.w3.org/1999/xlink" xml:space="preserve" xmlns:serif="http://www.serif.com/" style="fill-rule:evenodd;clip-rule:evenodd;stroke-linejoin:round;stroke-miterlimit:2;">
    <g id="Layer-1" serif:id="Layer 1">
        <path id="path1575" d="M281.78,0C280.9,0.011 279.99,0.055 279.09,0.125C243.27,6.309 223.57,44.189 220.72,77.594C216.55,107.91 229.91,146.86 263.19,153.66C268.02,154.58 273.03,154.16 277.75,152.88C317.83,139.44 335.76,91.972 329.97,52.66C328.28,27.264 309.14,-0.349 281.78,0ZM129.91,1.625C107.63,2.172 90.28,24.763 86.75,46C79.309,88.074 98.448,140.35 142.28,153.66C146.39,154.55 150.63,154.64 154.78,154C184.41,149.06 196.96,115.85 195.72,89.031C194.83,53.659 176.45,12.758 139.72,2.813C136.36,1.922 133.09,1.547 129.91,1.625ZM378.84,121.125C340.31,123.435 313.89,161.885 310.12,197.785C305.03,223.675 318.83,258.315 348.38,260.385C389.57,259.875 417.68,215.855 418.84,177.975C421.45,152.925 406.69,122.515 378.84,121.125ZM41.56,129.665C25.166,129.525 9.043,139.345 3.686,156.005C-10.607,200.585 18.094,257.045 65.31,266.415C85.016,269.785 102.328,254.655 107.218,236.445C117.568,197.495 96.303,152.275 60.31,134.595C54.447,131.305 47.976,129.715 41.56,129.665ZM214.31,209.595C182.17,209.665 149.53,225.975 128.72,250.255C106.24,278.555 87.828,311.485 80.625,347.195C71.874,372.895 91.708,402.485 119.19,402.665C152.25,403.575 180.66,380.875 213.53,379.195C241.42,374.945 266.39,389.445 291.47,398.945C312.82,408.075 342.32,404.575 353.22,381.595C361.79,358.185 349.17,333.205 338.72,312.415C317.4,278.655 294.55,243.175 259.59,222.095C245.58,213.415 230.01,209.565 214.31,209.595Z" style="fill:rgb(129,129,129);fill-rule:nonzero;"/>
    </g>
</svg>
