<?xml version="1.0" encoding="UTF-8"?>
<svg width="26px" height="26px" viewBox="0 0 26 26" version="1.1" xmlns="http://www.w3.org/2000/svg" xmlns:xlink="http://www.w3.org/1999/xlink">
    <title>Modifier</title>
    <g id="Alimentation" stroke="none" stroke-width="1" fill="none" fill-rule="evenodd">
        <g id="Historique" transform="translate(-805.000000, -298.000000)">
            <g id="Modifier" transform="translate(805.000000, 298.000000)">
                <circle id="Oval" fill="#8500FF" cx="13" cy="13" r="13"></circle>
                <path d="M18.682695,9 L19.6333701,8.06441902 C19.8678699,7.82256816 19.9898732,7.57753505 19.99938,7.32931969 C20.0088867,7.08110433 19.9090659,6.84880021 19.6999173,6.63240733 L19.367181,6.29827127 C19.1580325,6.08187839 18.928286,5.98322869 18.6779416,6.00232218 C18.4275971,6.02141567 18.185175,6.14552335 17.9506751,6.37464522 L17,7.3102262 L18.682695,9 Z M6.41034094,19.9805459 L8.44488924,19.1861042 L18,9.59801489 L16.4014263,8 L6.85539838,17.5880893 L6.01978033,19.5787593 C5.97739391,19.6944251 6.00312852,19.8009595 6.09698417,19.8983623 C6.19083982,19.9957651 6.29529208,20.0231596 6.41034094,19.9805459 Z" id="􀈊" fill="#FFFFFF" fill-rule="nonzero"></path>
            </g>
        </g>
    </g>
</svg>