<?xml version="1.0" encoding="UTF-8" standalone="no"?>
<!DOCTYPE svg PUBLIC "-//W3C//DTD SVG 1.1//EN" "http://www.w3.org/Graphics/SVG/1.1/DTD/svg11.dtd">
<svg width="100%" height="100%" viewBox="0 0 212 212" version="1.1" xmlns="http://www.w3.org/2000/svg" xmlns:xlink="http://www.w3.org/1999/xlink" xml:space="preserve" xmlns:serif="http://www.serif.com/" style="fill-rule:evenodd;clip-rule:evenodd;stroke-miterlimit:10;">
    <g id="Union_1" transform="matrix(1,0,0,1,-782.5,0.5)">
        <path d="M783,105.2C783,47.489 830.489,0 888.2,0C945.911,0 993.4,47.489 993.4,105.2C993.4,162.911 945.911,210.4 888.2,210.4C888.187,210.4 888.175,210.4 888.162,210.4C830.472,210.4 783,162.928 783,105.238C783,105.225 783,105.213 783,105.2ZM873.968,54.444C867.795,54.701 857.507,59.244 857.078,72.963C856.992,76.478 859.05,85.309 870.625,96.283C860.318,96.71 850.057,97.914 839.931,99.883C826.813,102.541 820.211,106.056 820.04,109.572L815.325,140.78C815.068,144.725 822.099,148.58 836.588,151.58C865.053,157.411 911.265,157.411 939.73,151.58C954.22,148.58 961.336,144.635 961.079,140.78L961.165,140.78L956.449,109.572C956.191,106.056 949.59,102.542 936.472,99.883C926.259,97.914 915.913,96.71 905.521,96.283C917.181,85.309 919.411,76.563 919.321,72.963C918.978,59.245 908.604,54.701 902.431,54.444C892.314,54.015 888.198,61.474 888.198,61.474C885.277,56.946 880.184,54.267 874.798,54.426C874.529,54.426 874.25,54.432 873.968,54.444ZM846.875,119.09C823.983,114.375 823.983,106.744 846.875,102.114C855.735,100.442 864.703,99.411 873.711,99.027C878.231,102.883 883.046,106.38 888.111,109.487C893.158,106.322 897.97,102.798 902.511,98.941C911.637,99.315 920.723,100.376 929.69,102.113C952.582,106.828 952.582,114.459 929.69,119.089C918.19,121.415 903.125,122.589 888.073,122.589C873.167,122.594 858.267,121.436 846.875,119.089L846.875,119.09Z" style="fill:url(#_Linear1);fill-rule:nonzero;stroke:black;stroke-opacity:0;stroke-width:1px;"/>
    </g>
    <defs>
        <linearGradient id="_Linear1" x1="0" y1="0" x2="1" y2="0" gradientUnits="userSpaceOnUse" gradientTransform="matrix(118.009,126.7,-126.7,118.009,825.939,37.8937)"><stop offset="0" style="stop-color:rgb(0,142,255);stop-opacity:1"/><stop offset="1" style="stop-color:rgb(0,85,153);stop-opacity:1"/></linearGradient>
    </defs>
</svg>
