<?xml version="1.0" encoding="UTF-8" standalone="no"?>
<!DOCTYPE svg PUBLIC "-//W3C//DTD SVG 1.1//EN" "http://www.w3.org/Graphics/SVG/1.1/DTD/svg11.dtd">
<svg width="100%" height="100%" viewBox="0 0 677 84" version="1.1" xmlns="http://www.w3.org/2000/svg" xmlns:xlink="http://www.w3.org/1999/xlink" xml:space="preserve" xmlns:serif="http://www.serif.com/" style="fill-rule:evenodd;clip-rule:evenodd;stroke-linejoin:round;stroke-miterlimit:2;">
    <g transform="matrix(1,0,0,1,-159.097,-289.114)">
        <g transform="matrix(1,0,0,0.775769,-42.9798,95.5408)">
            <g transform="matrix(120,0,0,120,200.877,342.877)">
                <path d="M0.366,-0.23L0.366,-0L0.626,-0L0.626,-0.23L0.982,-0.7L0.682,-0.7L0.496,-0.44L0.31,-0.7L0.01,-0.7L0.366,-0.23Z" style="fill:rgb(133,0,255);fill-rule:nonzero;"/>
            </g>
            <g transform="matrix(120,0,0,120,319.917,342.877)">
                <path d="M0.9,-0.351L0.9,-0.7L0.64,-0.7L0.64,-0.351C0.64,-0.277 0.613,-0.21 0.46,-0.21C0.307,-0.21 0.28,-0.276 0.28,-0.351L0.28,-0.7L0.02,-0.7L0.02,-0.351C0.02,-0.107 0.152,0.01 0.46,0.01C0.767,0.01 0.9,-0.108 0.9,-0.351Z" style="fill:rgb(133,0,255);fill-rule:nonzero;"/>
            </g>
            <g transform="matrix(120,0,0,120,430.317,342.877)">
                <path d="M0.01,-0.351C0.01,-0.107 0.142,0.01 0.45,0.01C0.731,0.01 0.876,-0.089 0.887,-0.311L0.621,-0.311C0.611,-0.244 0.56,-0.21 0.45,-0.21C0.297,-0.21 0.27,-0.276 0.27,-0.351C0.27,-0.425 0.296,-0.49 0.45,-0.49C0.56,-0.49 0.611,-0.457 0.621,-0.391L0.887,-0.391C0.876,-0.612 0.73,-0.71 0.45,-0.71C0.142,-0.71 0.01,-0.594 0.01,-0.351Z" style="fill:rgb(133,0,255);fill-rule:nonzero;"/>
            </g>
            <g transform="matrix(120,0,0,120,537.957,342.877)">
                <path d="M0.838,-0.432C0.838,-0.588 0.729,-0.7 0.57,-0.7L0.02,-0.7L0.02,-0L0.28,-0L0.28,-0.164L0.433,-0.164L0.53,-0L0.838,-0L0.714,-0.201C0.791,-0.246 0.838,-0.33 0.838,-0.432ZM0.28,-0.48L0.52,-0.48C0.546,-0.48 0.578,-0.48 0.578,-0.432C0.578,-0.384 0.546,-0.384 0.52,-0.384L0.28,-0.384L0.28,-0.48Z" style="fill:rgb(133,0,255);fill-rule:nonzero;"/>
            </g>
            <g transform="matrix(131.482,0,0,131.482,639.717,342.877)">
                <path d="M0.45,0.01C0.757,0.01 0.89,-0.108 0.89,-0.351C0.89,-0.593 0.757,-0.71 0.45,-0.71C0.142,-0.71 0.01,-0.594 0.01,-0.351C0.01,-0.107 0.142,0.01 0.45,0.01ZM0.45,-0.21C0.297,-0.21 0.27,-0.276 0.27,-0.351C0.27,-0.425 0.296,-0.49 0.45,-0.49C0.604,-0.49 0.63,-0.424 0.63,-0.351C0.63,-0.277 0.603,-0.21 0.45,-0.21Z" style="fill:rgb(133,0,255);fill-opacity:0;fill-rule:nonzero;"/>
            </g>
            <g transform="matrix(120,0,0,120,758.051,342.877)">
                <path d="M1.003,-0.068L0.868,-0.203C0.883,-0.246 0.89,-0.295 0.89,-0.351C0.89,-0.593 0.757,-0.71 0.45,-0.71C0.142,-0.71 0.01,-0.594 0.01,-0.351C0.01,-0.107 0.142,0.01 0.45,0.01C0.542,0.01 0.619,-0.001 0.681,-0.022L0.819,0.116L1.003,-0.068ZM0.45,-0.21C0.297,-0.21 0.27,-0.276 0.27,-0.351C0.27,-0.425 0.296,-0.49 0.45,-0.49C0.604,-0.49 0.63,-0.424 0.63,-0.351C0.63,-0.277 0.603,-0.21 0.45,-0.21Z" style="fill:rgb(133,0,255);fill-rule:nonzero;"/>
            </g>
        </g>
        <g transform="matrix(1,0,0,1.05279,-3,-17.1895)">
            <path d="M658.12,295.955C658.293,295.954 658.466,295.954 658.64,295.954C684.941,295.954 703.574,304.59 709.05,316.624C709.65,317.942 716.829,330.357 716.829,335.951C716.829,349.777 690.756,361.002 658.64,361.002L657.6,361.002C625.485,361.002 599.411,349.777 599.411,335.951C599.411,330.357 606.591,317.942 607.191,316.624C612.666,304.59 631.299,295.954 657.6,295.954C657.774,295.954 657.948,295.954 658.12,295.955ZM658.12,329.256C642.134,329.256 629.155,323.939 629.155,317.391C629.155,310.842 642.134,305.525 658.12,305.525C662,305.525 665.703,305.839 669.082,306.419L670.636,306.735L673.756,307.43L675.389,307.918L677.883,308.761L680.468,309.845L683.006,311.345L683.422,311.625L683.891,311.995L684.603,312.6L685.016,313.006L685.572,313.628L685.901,314.052L686.317,314.714L686.547,315.133L686.825,315.881L686.945,316.247L687.086,317.391L686.945,318.534L686.825,318.901L686.547,319.648L686.317,320.068L685.901,320.73L685.572,321.153L685.016,321.775L684.603,322.182L683.891,322.787L683.422,323.156L683.006,323.437L680.468,324.936L677.883,326.021L675.389,326.864L673.756,327.352L670.636,328.046L669.082,328.362L663.955,329.015L658.12,329.256Z" style="fill:rgb(133,0,255);"/>
        </g>
    </g>
</svg>
