<?xml version="1.0" encoding="UTF-8" standalone="no"?>
<!DOCTYPE svg PUBLIC "-//W3C//DTD SVG 1.1//EN" "http://www.w3.org/Graphics/SVG/1.1/DTD/svg11.dtd">
<svg width="100%" height="100%" viewBox="0 0 265 268" version="1.1" xmlns="http://www.w3.org/2000/svg" xmlns:xlink="http://www.w3.org/1999/xlink" xml:space="preserve" xmlns:serif="http://www.serif.com/" style="fill-rule:evenodd;clip-rule:evenodd;stroke-linejoin:round;stroke-miterlimit:2;">
    <g transform="matrix(0.999999,0,0,0.999999,0.088128,0.084096)">
        <g>
            <g>
                <path d="M170.925,195.954C164.49,200.584 157.556,204.549 149.96,207.852C137,213.612 123.176,216.204 108.2,216.204C93.224,216.204 79.4,213.612 66.152,207.852C53.192,202.092 41.672,194.316 31.88,184.524C21.8,174.444 14.024,163.212 8.552,149.964C2.792,137.004 -0.088,123.18 -0.088,108.204C-0.088,93.228 2.792,79.116 8.552,66.156C14.024,53.196 21.8,41.676 31.88,31.596C41.672,21.804 53.192,14.028 66.44,8.556C79.4,2.796 93.224,-0.084 108.2,-0.084C123.176,-0.084 137,2.796 149.96,8.556C163.208,14.028 174.44,21.804 184.52,31.884C194.312,41.676 202.088,53.196 207.848,66.156C213.608,79.404 216.2,93.228 216.2,108.204C216.2,123.18 213.608,137.004 207.848,149.964C204.087,158.614 199.467,166.404 193.988,173.575L260.264,240.108C261.992,241.548 263.144,243.276 263.72,245.292C264.584,247.308 264.872,249.324 264.872,251.34C264.872,254.22 264.008,257.1 262.856,259.404C261.416,261.708 259.688,263.724 257.096,265.164C254.792,266.604 252.2,267.468 249.32,267.468C247.016,267.468 245,266.892 242.984,266.316C240.968,265.452 239.24,264.3 237.8,262.572L170.925,195.954ZM108.2,192.876C119.72,192.876 130.664,190.86 141.032,186.252C151.112,181.932 160.04,175.884 167.816,168.108C175.592,160.044 181.928,151.116 186.248,141.036C190.568,130.668 192.872,119.724 192.872,108.204C192.872,96.396 190.568,85.452 186.248,75.372C181.928,65.292 175.592,56.076 167.816,48.3C160.04,40.524 151.112,34.476 141.032,30.156C130.664,25.548 119.72,23.244 108.2,23.244C96.392,23.244 85.736,25.548 75.368,30.156C65.288,34.476 56.072,40.524 48.296,48.3C40.52,56.076 34.472,65.292 29.864,75.372C25.544,85.452 23.24,96.396 23.24,108.204C23.24,119.724 25.544,130.668 29.864,141.036C34.472,151.116 40.52,160.044 48.296,168.108C56.072,175.884 65.288,181.932 75.368,186.252C85.736,190.86 96.392,192.876 108.2,192.876Z" style="fill:rgb(133,0,255);fill-rule:nonzero;"/>
            </g>
        </g>
    </g>
</svg>
